<svg width="409" height="94" viewBox="0 0 409 94" fill="none" xmlns="http://www.w3.org/2000/svg">
<path d="M47.8705 93.32C43.5505 82.44 39.1505 73.32 34.6705 65.96C30.1905 58.52 25.9505 53.24 21.9505 50.12C22.1105 56.84 22.2305 63.8 22.3105 71C22.3905 78.2 22.4305 85.28 22.4305 92.24C18.8305 92.24 15.0305 92.16 11.0305 92C7.11047 91.92 3.71047 91.84 0.830469 91.76C0.830469 84.96 0.830469 77.88 0.830469 70.52C0.830469 63.16 0.790469 55.92 0.710469 48.8C0.710469 41.6 0.670469 34.88 0.590469 28.64C0.510469 22.4 0.430469 16.96 0.350469 12.32C0.350469 7.67999 0.310469 4.23999 0.230469 1.99999C4.31047 1.36 8.35047 0.919997 12.3505 0.679996C16.4305 0.359995 20.2305 0.199995 23.7505 0.199995C32.7105 0.199995 40.5505 1.15999 47.2705 3.07999C53.9905 4.91999 59.2305 7.59999 62.9905 11.12C66.7505 14.56 68.6305 18.76 68.6305 23.72C68.6305 27.32 67.6305 30.76 65.6305 34.04C63.7105 37.32 61.0705 40.16 57.7105 42.56C54.3505 44.96 50.5505 46.64 46.3105 47.6C47.5905 49.12 49.1905 51.28 51.1105 54.08C53.0305 56.8 55.0305 59.88 57.1105 63.32C59.2705 66.68 61.3505 70.08 63.3505 73.52C65.3505 76.96 67.1505 80.2 68.7505 83.24C70.3505 86.2 71.5105 88.6 72.2305 90.44C70.9505 90.68 69.1905 90.96 66.9505 91.28C64.7905 91.6 62.4705 91.88 59.9905 92.12C57.5905 92.44 55.2705 92.68 53.0305 92.84C50.8705 93.08 49.1505 93.24 47.8705 93.32ZM20.5105 9.56C20.7505 13.16 20.9905 18.08 21.2305 24.32C21.4705 30.56 21.7105 37.52 21.9505 45.2C29.8705 44.88 36.1105 43.24 40.6705 40.28C45.3105 37.24 47.6305 33.24 47.6305 28.28C47.6305 24.68 46.4305 21.48 44.0305 18.68C41.7105 15.8 38.5105 13.56 34.4305 11.96C30.3505 10.36 25.7105 9.56 20.5105 9.56ZM105.859 92.6C99.3786 92.6 93.5386 91.12 88.3386 88.16C83.2186 85.12 79.1386 81.04 76.0986 75.92C73.1386 70.72 71.6586 64.84 71.6586 58.28C71.6586 51.72 73.0986 45.88 75.9786 40.76C78.9386 35.64 82.9386 31.6 87.9786 28.64C93.0986 25.68 98.8986 24.2 105.379 24.2C111.459 24.2 116.899 25.56 121.699 28.28C126.579 30.92 130.499 34.64 133.459 39.44C136.499 44.24 138.299 49.88 138.859 56.36L91.2186 65.24C92.7386 70.44 95.1386 74.68 98.4186 77.96C101.699 81.16 105.379 82.76 109.459 82.76C113.219 82.76 116.939 81.48 120.619 78.92C124.299 76.28 127.139 72.92 129.139 68.84L137.659 76.04C133.739 81.32 129.019 85.4 123.499 88.28C117.979 91.16 112.099 92.6 105.859 92.6ZM89.6586 53.48C89.6586 53.96 89.6586 54.36 89.6586 54.68L117.619 50.84C117.059 45.72 115.419 41.6 112.699 38.48C109.979 35.36 106.659 33.8 102.739 33.8C98.6586 33.8 95.4586 35.56 93.1386 39.08C90.8186 42.52 89.6586 47.32 89.6586 53.48ZM163.113 92.6C160.793 92.6 158.353 92.52 155.793 92.36C153.313 92.28 150.873 92.16 148.473 92C148.473 83.28 148.473 74.52 148.473 65.72C148.553 56.92 148.593 48.48 148.593 40.4C148.673 32.32 148.753 24.96 148.833 18.32C148.993 11.6 149.153 5.96 149.313 1.39999C152.433 0.999994 155.473 0.719995 158.433 0.559997C161.393 0.319995 164.273 0.199995 167.073 0.199995C185.473 0.199995 199.353 4 208.713 11.6C218.153 19.12 222.873 30.24 222.873 44.96C222.873 60.48 217.713 72.32 207.393 80.48C197.153 88.56 182.393 92.6 163.113 92.6ZM169.713 82.64C177.313 82.64 183.433 81.56 188.073 79.4C192.793 77.16 196.233 73.64 198.393 68.84C200.553 64.04 201.633 57.68 201.633 49.76C201.633 37.2 199.073 27.68 193.953 21.2C188.913 14.72 181.073 10.96 170.433 9.92C170.353 12.08 170.273 15.36 170.193 19.76C170.113 24.08 170.033 29.04 169.953 34.64C169.953 40.16 169.913 45.88 169.833 51.8C169.833 57.72 169.793 63.4 169.713 68.84C169.713 74.2 169.713 78.8 169.713 82.64ZM231.444 17V0.799994H251.844V17H231.444ZM231.924 92.24C231.844 89.6 231.764 86.04 231.684 81.56C231.604 77 231.524 71.8 231.444 65.96C231.444 60.04 231.404 53.72 231.324 47C231.324 40.28 231.324 33.4 231.324 26.36C234.924 26.36 238.684 26.4 242.604 26.48C246.604 26.56 249.724 26.68 251.964 26.84C251.964 32.68 251.924 38.8 251.844 45.2C251.844 51.6 251.804 57.84 251.724 63.92C251.724 69.92 251.684 75.36 251.604 80.24C251.524 85.12 251.444 88.96 251.364 91.76C247.684 91.92 244.164 92.04 240.804 92.12C237.444 92.2 234.484 92.24 231.924 92.24ZM265.852 92.24C265.772 89.68 265.692 86.16 265.612 81.68C265.532 77.12 265.452 71.88 265.372 65.96C265.372 59.96 265.332 53.52 265.252 46.64C265.252 39.68 265.252 32.52 265.252 25.16C267.012 25.16 269.172 25.2 271.732 25.28C274.292 25.28 276.852 25.32 279.412 25.4C282.052 25.48 284.212 25.56 285.892 25.64C285.892 27.64 285.892 29.68 285.892 31.76C292.692 26.72 299.612 24.2 306.652 24.2C313.132 24.2 318.372 26.48 322.372 31.04C326.372 35.6 329.252 42.88 331.012 52.88C332.852 62.88 333.772 76 333.772 92.24C331.932 92.24 329.732 92.2 327.172 92.12C324.612 92.12 322.092 92.08 319.612 92C317.132 91.92 314.972 91.84 313.132 91.76C313.132 77.6 312.732 66.28 311.932 57.8C311.132 49.32 309.812 43.2 307.972 39.44C306.132 35.68 303.652 33.8 300.532 33.8C297.972 33.8 295.372 34.88 292.732 37.04C290.092 39.2 287.812 42.04 285.892 45.56C285.812 52.36 285.732 58.8 285.652 64.88C285.652 70.96 285.612 76.36 285.532 81.08C285.452 85.72 285.372 89.28 285.292 91.76C282.812 91.84 279.772 91.92 276.172 92C272.652 92.16 269.212 92.24 265.852 92.24ZM375.155 92.6C368.675 92.6 362.835 91.12 357.635 88.16C352.515 85.12 348.435 81.04 345.395 75.92C342.435 70.72 340.955 64.84 340.955 58.28C340.955 51.72 342.395 45.88 345.275 40.76C348.235 35.64 352.235 31.6 357.275 28.64C362.395 25.68 368.195 24.2 374.675 24.2C380.755 24.2 386.195 25.56 390.995 28.28C395.875 30.92 399.795 34.64 402.755 39.44C405.795 44.24 407.595 49.88 408.155 56.36L360.515 65.24C362.035 70.44 364.435 74.68 367.715 77.96C370.995 81.16 374.675 82.76 378.755 82.76C382.515 82.76 386.235 81.48 389.915 78.92C393.595 76.28 396.435 72.92 398.435 68.84L406.955 76.04C403.035 81.32 398.315 85.4 392.795 88.28C387.275 91.16 381.395 92.6 375.155 92.6ZM358.955 53.48C358.955 53.96 358.955 54.36 358.955 54.68L386.915 50.84C386.355 45.72 384.715 41.6 381.995 38.48C379.275 35.36 375.955 33.8 372.035 33.8C367.955 33.8 364.755 35.56 362.435 39.08C360.115 42.52 358.955 47.32 358.955 53.48Z" fill="white"/>
</svg>
